<svg width="467" height="467" viewBox="0 0 467 467" fill="none" xmlns="http://www.w3.org/2000/svg">
<rect x="13" y="13" width="441" height="441" rx="90" fill="url(#paint0_linear)"/>
<path d="M215.387 277.188C215.427 277.089 215.465 276.991 215.504 276.892C216.54 274.268 216.912 271.648 216.825 269.117C203.863 279.831 190.067 286.68 178.168 288.696C180.183 276.799 187.032 263.004 197.743 250.041C195.204 249.953 192.575 250.329 189.943 251.369C189.824 251.416 189.705 251.464 189.587 251.511C180.999 254.961 172.841 260.249 165.749 267.341C150.511 282.58 143.607 302.743 145.343 321.521C164.12 323.256 184.283 316.352 199.521 301.113C206.637 293.997 211.936 285.808 215.387 277.188Z" fill="white"/>
<path d="M277.113 352.568L240.699 263.959L353.649 113L277.113 352.568Z" fill="white"/>
<path d="M353.649 113L202.889 226.149L114 189.535L353.649 113Z" fill="white" fill-opacity="0.8"/>
<path d="M353.649 113L239.589 227.06L202.889 226.149L353.649 113Z" fill="white"/>
<path d="M240.699 263.959L239.589 227.06L353.649 113L240.699 263.959Z" fill="white" fill-opacity="0.8"/>
<defs>
<linearGradient id="paint0_linear" x1="233.5" y1="13" x2="233.5" y2="454" gradientUnits="userSpaceOnUse">
<stop stop-color="#007B8C"/>
<stop offset="1" stop-color="#004654"/>
</linearGradient>
</defs>
</svg>
